<svg width="135" height="28" viewBox="0 0 135 28" fill="none" xmlns="http://www.w3.org/2000/svg">
<path d="M35.1548 12.1378C35.098 11.5649 34.8542 11.1198 34.4233 10.8026C33.9924 10.4853 33.4077 10.3267 32.669 10.3267C32.1671 10.3267 31.7434 10.3977 31.3977 10.5398C31.0521 10.6771 30.7869 10.8688 30.6023 11.1151C30.4223 11.3613 30.3324 11.6406 30.3324 11.9531C30.3229 12.2135 30.3774 12.4408 30.4957 12.6349C30.6188 12.8291 30.7869 12.9972 31 13.1392C31.2131 13.2765 31.4593 13.3973 31.7386 13.5014C32.018 13.6009 32.3163 13.6861 32.6335 13.7571L33.9403 14.0696C34.5748 14.2116 35.1572 14.401 35.6875 14.6378C36.2178 14.8745 36.6771 15.1657 37.0653 15.5114C37.4536 15.857 37.7543 16.2642 37.9673 16.733C38.1851 17.2017 38.2964 17.7391 38.3011 18.3452C38.2964 19.2353 38.0691 20.0071 37.6193 20.6605C37.1742 21.3092 36.5303 21.8134 35.6875 22.1733C34.8494 22.5284 33.8385 22.706 32.6548 22.706C31.4806 22.706 30.4579 22.526 29.5866 22.1662C28.7202 21.8063 28.0431 21.2737 27.5554 20.5682C27.0724 19.858 26.8191 18.9796 26.7955 17.9332H29.7713C29.8045 18.4209 29.9441 18.8281 30.1903 19.1548C30.4413 19.4768 30.7751 19.7206 31.1918 19.8864C31.6132 20.0473 32.089 20.1278 32.6193 20.1278C33.1402 20.1278 33.5923 20.0521 33.9759 19.9006C34.3641 19.7491 34.6648 19.5384 34.8778 19.2685C35.0909 18.9986 35.1974 18.6884 35.1974 18.3381C35.1974 18.0114 35.1004 17.7367 34.9062 17.5142C34.7169 17.2917 34.4375 17.1023 34.0682 16.946C33.7036 16.7898 33.2562 16.6477 32.7259 16.5199L31.142 16.1222C29.9157 15.8239 28.9474 15.3575 28.2372 14.723C27.527 14.0885 27.1742 13.2339 27.179 12.1591C27.1742 11.2784 27.4086 10.509 27.8821 9.85085C28.3603 9.19271 29.0161 8.67898 29.8494 8.30966C30.6828 7.94034 31.6297 7.75568 32.6903 7.75568C33.7699 7.75568 34.7121 7.94034 35.517 8.30966C36.3267 8.67898 36.9564 9.19271 37.4062 9.85085C37.8561 10.509 38.0881 11.2713 38.1023 12.1378H35.1548ZM40.3697 7.95455H44.1623L48.168 17.7273H48.3384L52.3441 7.95455H56.1367V22.5H53.1538V13.0327H53.033L49.2688 22.429H47.2376L43.4734 12.9972H43.3526V22.5H40.3697V7.95455ZM58.6705 7.95455H62.4631L66.4688 17.7273H66.6392L70.6449 7.95455H74.4375V22.5H71.4545V13.0327H71.3338L67.5696 22.429H65.5384L61.7741 12.9972H61.6534V22.5H58.6705V7.95455Z" fill="black"/>
<path d="M76.9712 22.5V7.95455H86.6019V10.4901H80.0465V13.956H85.9627V16.4915H80.0465V22.5H76.9712ZM88.6705 22.5V7.95455H91.7457V19.9645H97.9815V22.5H88.6705ZM112.818 15.2273C112.818 16.8134 112.518 18.1629 111.916 19.2756C111.32 20.3883 110.505 21.2382 109.473 21.8253C108.446 22.4077 107.29 22.6989 106.007 22.6989C104.714 22.6989 103.554 22.4053 102.527 21.8182C101.5 21.2311 100.688 20.3812 100.091 19.2685C99.4943 18.1558 99.196 16.8087 99.196 15.2273C99.196 13.6411 99.4943 12.2917 100.091 11.179C100.688 10.0663 101.5 9.21875 102.527 8.63636C103.554 8.04924 104.714 7.75568 106.007 7.75568C107.29 7.75568 108.446 8.04924 109.473 8.63636C110.505 9.21875 111.32 10.0663 111.916 11.179C112.518 12.2917 112.818 13.6411 112.818 15.2273ZM109.7 15.2273C109.7 14.1998 109.546 13.3333 109.239 12.6278C108.936 11.9223 108.507 11.3873 107.953 11.0227C107.399 10.6581 106.75 10.4759 106.007 10.4759C105.264 10.4759 104.615 10.6581 104.061 11.0227C103.507 11.3873 103.076 11.9223 102.768 12.6278C102.465 13.3333 102.314 14.1998 102.314 15.2273C102.314 16.2547 102.465 17.1212 102.768 17.8267C103.076 18.5322 103.507 19.0672 104.061 19.4318C104.615 19.7964 105.264 19.9787 106.007 19.9787C106.75 19.9787 107.399 19.7964 107.953 19.4318C108.507 19.0672 108.936 18.5322 109.239 17.8267C109.546 17.1212 109.7 16.2547 109.7 15.2273ZM117.824 22.5L113.662 7.95455H117.021L119.429 18.0611H119.549L122.206 7.95455H125.082L127.731 18.0824H127.859L130.267 7.95455H133.626L129.464 22.5H126.467L123.697 12.9901H123.583L120.821 22.5H117.824Z" fill="#0058FF"/>
<path fill-rule="evenodd" clip-rule="evenodd" d="M21.5439 7.4466L18.92 4.74716L15.5701 6.35472H13.6138C13.1365 6.35472 12.6624 6.27582 12.2108 6.12121L4.42237 3.45485C3.77633 3.23368 3.07333 3.5781 2.85216 4.22413C2.80803 4.35304 2.78551 4.48835 2.78551 4.6246V12.4897L0.525391 13.5743L1.1104 19.3499L4.02285 22.3825C4.80976 23.184 5.90538 23.6816 7.11724 23.6816L18.6685 23.6816C21.0609 23.6816 23.0002 21.7423 23.0002 19.3499V10.6865C23.0002 9.39753 22.4373 8.2401 21.5439 7.4466Z" fill="url(#paint0_linear_4701_2478)"/>
<path fill-rule="evenodd" clip-rule="evenodd" d="M4.33173 20.7939H15.883C18.2754 20.7939 20.2147 18.8546 20.2147 16.4622V7.79876C20.2147 5.40641 18.2754 3.46703 15.883 3.46703H10.8283C10.351 3.46703 9.8769 3.38812 9.42529 3.23352L7.14692 2.45352L1.63686 0.567154C0.990826 0.345985 0.287819 0.690405 0.0666501 1.33644C0.0225202 1.46534 0 1.60065 0 1.7369L0 16.4622C0 18.8546 1.93938 20.7939 4.33173 20.7939Z" fill="#0076FF"/>
<path d="M5.77545 13.5743C6.5729 13.5743 7.21936 12.9279 7.21936 12.1304C7.21936 11.333 6.5729 10.6865 5.77545 10.6865C4.978 10.6865 4.33154 11.333 4.33154 12.1304C4.33154 12.9279 4.978 13.5743 5.77545 13.5743Z" fill="white"/>
<path d="M12.9952 13.5743C13.7926 13.5743 14.4391 12.9279 14.4391 12.1304C14.4391 11.333 13.7926 10.6865 12.9952 10.6865C12.1977 10.6865 11.5513 11.333 11.5513 12.1304C11.5513 12.9279 12.1977 13.5743 12.9952 13.5743Z" fill="white"/>
<defs>
<linearGradient id="paint0_linear_4701_2478" x1="11.7628" y1="23.6816" x2="15.6017" y2="-3.73922" gradientUnits="userSpaceOnUse">
<stop stop-color="#00AEFF"/>
<stop offset="1" stop-color="#0076FF"/>
</linearGradient>
</defs>
</svg>
