<svg width="33" height="32" viewBox="0 0 33 32" fill="none" xmlns="http://www.w3.org/2000/svg">
<g clip-path="url(#clip0_1_75)">
<path d="M16.4542 0.244141C9.87452 0.244141 7.95019 0.250929 7.57612 0.281958C6.22588 0.394197 5.38566 0.606797 4.47029 1.06254C3.76486 1.41283 3.20851 1.81888 2.65944 2.38807C1.65947 3.42611 1.05343 4.70316 0.834038 6.22117C0.727375 6.95811 0.696346 7.10844 0.690042 10.8726C0.687618 12.1274 0.690042 13.7788 0.690042 15.9937C0.690042 22.568 0.697315 24.4904 0.728829 24.8638C0.837917 26.1776 1.04397 27.0043 1.48032 27.9085C2.31424 29.6394 3.90692 30.9387 5.78322 31.4236C6.4329 31.5908 7.15046 31.683 8.07166 31.7266C8.46192 31.7436 12.44 31.7556 16.4205 31.7556C20.401 31.7556 24.3815 31.7508 24.7621 31.7314C25.8287 31.6812 26.4481 31.5981 27.1329 31.4211C29.0213 30.9339 30.5849 29.6539 31.4358 27.8988C31.8637 27.0164 32.0806 26.1582 32.1788 24.913C32.2001 24.6414 32.2091 20.3126 32.2091 15.9896C32.2091 11.6658 32.1994 7.34504 32.1781 7.07351C32.0787 5.80809 31.8617 4.95721 31.42 4.05785C31.0576 3.32163 30.6552 2.77182 30.071 2.20966C29.0283 1.21381 27.7532 0.607766 26.2337 0.388621C25.4975 0.2822 25.3509 0.250686 21.5837 0.244141H16.4542Z" fill="#15191E"/>
<path d="M17.193 11.7319H6.02246V23.7843H9.13162V19.8632H15.0892L17.8074 23.7843H21.2888L18.2914 19.8452C19.2223 19.7007 19.8925 19.3573 20.3021 18.8152C20.7116 18.2732 20.9165 17.4058 20.9165 16.2493V15.3459C20.9165 14.6592 20.8421 14.1171 20.7116 13.7015C20.5814 13.2859 20.358 12.9245 20.0415 12.5993C19.7064 12.2921 19.334 12.0753 18.8872 11.9307C18.4404 11.8042 17.8818 11.7319 17.193 11.7319ZM16.6904 17.207H9.13162V14.3881H16.6904C17.1185 14.3881 17.4164 14.4605 17.5654 14.5869C17.7142 14.7134 17.8074 14.9483 17.8074 15.2917V16.3036C17.8074 16.665 17.7142 16.8999 17.5654 17.0263C17.4164 17.1528 17.1185 17.207 16.6904 17.207Z" fill="white"/>
<path d="M25.051 11.1313C26.2128 11.1313 27.1553 10.1866 27.1553 9.0212C27.1553 7.85587 26.2128 6.91113 25.051 6.91113C23.8883 6.91113 22.9458 7.85587 22.9458 9.0212C22.9458 10.1866 23.8883 11.1313 25.051 11.1313Z" fill="#F41240"/>
</g>
<defs>
<clipPath id="clip0_1_75">
<rect width="32" height="32" fill="white" transform="translate(0.449219)"/>
</clipPath>
</defs>
</svg>
