<svg width="96" height="16" viewBox="0 0 96 16" fill="none" xmlns="http://www.w3.org/2000/svg">
<g clip-path="url(#clip0_4707_2630)">
<path d="M15.2572 6.41624C15.2323 6.33928 15.1863 6.27085 15.1244 6.21871C15.0625 6.16657 14.9873 6.13281 14.9072 6.12124L10.3262 5.45524L8.27723 1.30524C8.24141 1.23294 8.18611 1.17209 8.11755 1.12954C8.049 1.087 7.96992 1.06445 7.88923 1.06445C7.80855 1.06445 7.72947 1.087 7.66091 1.12954C7.59235 1.17209 7.53705 1.23294 7.50123 1.30524L5.45123 5.45524L0.871231 6.12124C0.791389 6.13294 0.716403 6.16671 0.654732 6.21875C0.593061 6.27079 0.547159 6.33902 0.522203 6.41576C0.497248 6.4925 0.494233 6.57468 0.513497 6.65304C0.532761 6.7314 0.573539 6.80282 0.631231 6.85924L3.94623 10.0912L3.16323 14.6542C3.14971 14.7338 3.15869 14.8156 3.18917 14.8903C3.21964 14.965 3.27039 15.0297 3.3357 15.0772C3.401 15.1246 3.47826 15.1528 3.55875 15.1586C3.63924 15.1645 3.71976 15.1477 3.79123 15.1102L7.88923 12.9562L11.9862 15.1102C12.0578 15.1478 12.1384 15.1646 12.219 15.1587C12.2996 15.1529 12.377 15.1245 12.4423 15.077C12.5077 15.0294 12.5584 14.9646 12.5888 14.8897C12.6192 14.8148 12.628 14.7329 12.6142 14.6532L11.8322 10.0912L15.1472 6.85924C15.205 6.80297 15.2459 6.73168 15.2653 6.65341C15.2848 6.57514 15.282 6.493 15.2572 6.41624Z" fill="#F0C015"/>
</g>
<g clip-path="url(#clip1_4707_2630)">
<path d="M35.2572 6.41624C35.2323 6.33928 35.1863 6.27085 35.1244 6.21871C35.0625 6.16657 34.9873 6.13281 34.9072 6.12124L30.3262 5.45524L28.2772 1.30524C28.2414 1.23294 28.1861 1.17209 28.1176 1.12954C28.049 1.087 27.9699 1.06445 27.8892 1.06445C27.8085 1.06445 27.7295 1.087 27.6609 1.12954C27.5924 1.17209 27.537 1.23294 27.5012 1.30524L25.4512 5.45524L20.8712 6.12124C20.7914 6.13294 20.7164 6.16671 20.6547 6.21875C20.5931 6.27079 20.5472 6.33902 20.5222 6.41576C20.4972 6.4925 20.4942 6.57468 20.5135 6.65304C20.5328 6.7314 20.5735 6.80282 20.6312 6.85924L23.9462 10.0912L23.1632 14.6542C23.1497 14.7338 23.1587 14.8156 23.1892 14.8903C23.2196 14.965 23.2704 15.0297 23.3357 15.0772C23.401 15.1246 23.4783 15.1528 23.5587 15.1586C23.6392 15.1645 23.7198 15.1477 23.7912 15.1102L27.8892 12.9562L31.9862 15.1102C32.0578 15.1478 32.1384 15.1646 32.219 15.1587C32.2996 15.1529 32.377 15.1245 32.4423 15.077C32.5077 15.0294 32.5584 14.9646 32.5888 14.8897C32.6192 14.8148 32.628 14.7329 32.6142 14.6532L31.8322 10.0912L35.1472 6.85924C35.205 6.80297 35.2459 6.73168 35.2653 6.65341C35.2848 6.57514 35.282 6.493 35.2572 6.41624Z" fill="#F0C015"/>
</g>
<g clip-path="url(#clip2_4707_2630)">
<path d="M55.2572 6.41624C55.2323 6.33928 55.1863 6.27085 55.1244 6.21871C55.0625 6.16657 54.9873 6.13281 54.9072 6.12124L50.3262 5.45524L48.2772 1.30524C48.2414 1.23294 48.1861 1.17209 48.1176 1.12954C48.049 1.087 47.9699 1.06445 47.8892 1.06445C47.8085 1.06445 47.7295 1.087 47.6609 1.12954C47.5924 1.17209 47.537 1.23294 47.5012 1.30524L45.4512 5.45524L40.8712 6.12124C40.7914 6.13294 40.7164 6.16671 40.6547 6.21875C40.5931 6.27079 40.5472 6.33902 40.5222 6.41576C40.4972 6.4925 40.4942 6.57468 40.5135 6.65304C40.5328 6.7314 40.5735 6.80282 40.6312 6.85924L43.9462 10.0912L43.1632 14.6542C43.1497 14.7338 43.1587 14.8156 43.1892 14.8903C43.2196 14.965 43.2704 15.0297 43.3357 15.0772C43.401 15.1246 43.4783 15.1528 43.5587 15.1586C43.6392 15.1645 43.7198 15.1477 43.7912 15.1102L47.8892 12.9562L51.9862 15.1102C52.0578 15.1478 52.1384 15.1646 52.219 15.1587C52.2996 15.1529 52.377 15.1245 52.4423 15.077C52.5077 15.0294 52.5584 14.9646 52.5888 14.8897C52.6192 14.8148 52.628 14.7329 52.6142 14.6532L51.8322 10.0912L55.1472 6.85924C55.205 6.80297 55.2459 6.73168 55.2653 6.65341C55.2848 6.57514 55.282 6.493 55.2572 6.41624Z" fill="#F0C015"/>
</g>
<g clip-path="url(#clip3_4707_2630)">
<path d="M75.2572 6.41624C75.2323 6.33928 75.1863 6.27085 75.1244 6.21871C75.0625 6.16657 74.9873 6.13281 74.9072 6.12124L70.3262 5.45524L68.2772 1.30524C68.2414 1.23294 68.1861 1.17209 68.1176 1.12954C68.049 1.087 67.9699 1.06445 67.8892 1.06445C67.8085 1.06445 67.7295 1.087 67.6609 1.12954C67.5924 1.17209 67.537 1.23294 67.5012 1.30524L65.4512 5.45524L60.8712 6.12124C60.7914 6.13294 60.7164 6.16671 60.6547 6.21875C60.5931 6.27079 60.5472 6.33902 60.5222 6.41576C60.4972 6.4925 60.4942 6.57468 60.5135 6.65304C60.5328 6.7314 60.5735 6.80282 60.6312 6.85924L63.9462 10.0912L63.1632 14.6542C63.1497 14.7338 63.1587 14.8156 63.1892 14.8903C63.2196 14.965 63.2704 15.0297 63.3357 15.0772C63.401 15.1246 63.4783 15.1528 63.5587 15.1586C63.6392 15.1645 63.7198 15.1477 63.7912 15.1102L67.8892 12.9562L71.9862 15.1102C72.0578 15.1478 72.1384 15.1646 72.219 15.1587C72.2996 15.1529 72.377 15.1245 72.4423 15.077C72.5077 15.0294 72.5584 14.9646 72.5888 14.8897C72.6192 14.8148 72.628 14.7329 72.6142 14.6532L71.8322 10.0912L75.1472 6.85924C75.205 6.80297 75.2459 6.73168 75.2653 6.65341C75.2848 6.57514 75.282 6.493 75.2572 6.41624Z" fill="#F0C015"/>
</g>
<g clip-path="url(#clip4_4707_2630)">
<path d="M95.2572 6.41624C95.2323 6.33928 95.1863 6.27085 95.1244 6.21871C95.0625 6.16657 94.9873 6.13281 94.9072 6.12124L90.3262 5.45524L88.2772 1.30524C88.2414 1.23294 88.1861 1.17209 88.1176 1.12954C88.049 1.087 87.9699 1.06445 87.8892 1.06445C87.8085 1.06445 87.7295 1.087 87.6609 1.12954C87.5924 1.17209 87.537 1.23294 87.5012 1.30524L85.4512 5.45524L80.8712 6.12124C80.7914 6.13294 80.7164 6.16671 80.6547 6.21875C80.5931 6.27079 80.5472 6.33902 80.5222 6.41576C80.4972 6.4925 80.4942 6.57468 80.5135 6.65304C80.5328 6.7314 80.5735 6.80282 80.6312 6.85924L83.9462 10.0912L83.1632 14.6542C83.1497 14.7338 83.1587 14.8156 83.1892 14.8903C83.2196 14.965 83.2704 15.0297 83.3357 15.0772C83.401 15.1246 83.4783 15.1528 83.5587 15.1586C83.6392 15.1645 83.7198 15.1477 83.7912 15.1102L87.8892 12.9562L91.9862 15.1102C92.0578 15.1478 92.1384 15.1646 92.219 15.1587C92.2996 15.1529 92.377 15.1245 92.4423 15.077C92.5077 15.0294 92.5584 14.9646 92.5888 14.8897C92.6192 14.8148 92.628 14.7329 92.6142 14.6532L91.8322 10.0912L95.1472 6.85924C95.205 6.80297 95.2459 6.73168 95.2653 6.65341C95.2848 6.57514 95.282 6.493 95.2572 6.41624Z" fill="#F0C015"/>
</g>
<defs>
<clipPath id="clip0_4707_2630">
<rect width="15" height="15" fill="white" transform="translate(0.5 0.5)"/>
</clipPath>
<clipPath id="clip1_4707_2630">
<rect width="15" height="15" fill="white" transform="translate(20.5 0.5)"/>
</clipPath>
<clipPath id="clip2_4707_2630">
<rect width="15" height="15" fill="white" transform="translate(40.5 0.5)"/>
</clipPath>
<clipPath id="clip3_4707_2630">
<rect width="15" height="15" fill="white" transform="translate(60.5 0.5)"/>
</clipPath>
<clipPath id="clip4_4707_2630">
<rect width="15" height="15" fill="white" transform="translate(80.5 0.5)"/>
</clipPath>
</defs>
</svg>
