<svg width="196" height="26" viewBox="0 0 196 26" fill="none" xmlns="http://www.w3.org/2000/svg">
<rect width="46" height="26" rx="4" fill="#F2F2F2"/>
<path fill-rule="evenodd" clip-rule="evenodd" d="M8.06002 8.00171C8.38754 7.99975 9.3609 7.91208 9.7732 9.30359C10.0509 10.2409 10.4933 11.7763 11.1004 13.9098H11.3477C11.9987 11.6605 12.4459 10.1251 12.6894 9.30359C13.106 7.89759 14.1474 8.00173 14.564 8.00173L17.7782 8.00174V18H14.5022V12.1078H14.2826L12.4564 18H9.99169L8.16552 12.1035H7.94585V18H4.66992V8.00174L8.06002 8.00171ZM22.4823 8.00174V13.8983H22.7437L24.965 9.04959C25.3962 8.08469 26.3153 8.00174 26.3153 8.00174H29.4854V18H26.141V12.1035H25.8797L23.7019 16.9521C23.2707 17.9127 22.3081 18 22.3081 18H19.138V8.00174H22.4823ZM41.0449 12.753C40.5784 14.0749 39.1134 15.0217 37.4915 15.0217H33.9843V18H30.804V12.753H41.0449Z" fill="#0F754E"/>
<path fill-rule="evenodd" clip-rule="evenodd" d="M37.6444 8.00195H30.6367C30.8035 10.2279 32.7204 12.1335 34.7049 12.1335H41.2654C41.644 10.2834 40.3407 8.00195 37.6444 8.00195Z" fill="url(#paint0_linear_4714_1071)"/>
<rect x="50" width="46" height="26" rx="4" fill="#F2F2F2"/>
<g clip-path="url(#clip0_4714_1071)">
<path d="M70.528 18.8268H67.5244L69.4031 7.21045H72.4065L70.528 18.8268Z" fill="#00579F"/>
<path d="M81.4168 7.49455C80.8243 7.25951 79.8846 7 78.7228 7C75.7566 7 73.6678 8.58171 73.655 10.8431C73.6304 12.5115 75.1505 13.4382 76.2874 13.9945C77.4495 14.563 77.8445 14.934 77.8445 15.4407C77.8327 16.2189 76.9055 16.5777 76.0407 16.5777C74.8416 16.5777 74.199 16.3927 73.2226 15.9598L72.8271 15.7742L72.4067 18.3818C73.1112 18.7027 74.4091 18.9875 75.7566 19C78.9082 19 80.96 17.4428 80.9843 15.0329C80.9963 13.7105 80.1936 12.6973 78.4631 11.8693C77.4125 11.3378 76.7692 10.9794 76.7692 10.4356C76.7815 9.9412 77.3133 9.43482 78.4992 9.43482C79.4757 9.41002 80.1931 9.64473 80.7366 9.87961L81.0083 10.003L81.4168 7.49455Z" fill="#00579F"/>
<path d="M85.4088 14.7115C85.6562 14.0442 86.608 11.4614 86.608 11.4614C86.5955 11.4862 86.8548 10.7817 87.0032 10.3492L87.2131 11.3502C87.2131 11.3502 87.7819 14.1307 87.9054 14.7115C87.436 14.7115 86.0021 14.7115 85.4088 14.7115ZM89.1164 7.21045H86.7931C86.0766 7.21045 85.5323 7.42036 85.2232 8.17426L80.7617 18.8266H83.9133C83.9133 18.8266 84.4322 17.3929 84.5437 17.0841C84.8895 17.0841 87.9553 17.0841 88.4001 17.0841C88.4863 17.4919 88.7585 18.8266 88.7585 18.8266H91.5395L89.1164 7.21045Z" fill="#00579F"/>
<path d="M65.0158 7.21045L62.0742 15.1317L61.7528 13.5252C61.209 11.6714 59.5034 9.65743 57.6001 8.656L60.2944 18.8144H63.4707L68.1918 7.21045H65.0158Z" fill="#00579F"/>
<path d="M59.3429 7.21045H54.5104L54.4609 7.44516C58.2306 8.40914 60.7272 10.7328 61.7529 13.5256L60.7024 8.18691C60.5294 7.445 59.9979 7.23492 59.3429 7.21045Z" fill="#FAA61A"/>
</g>
<rect x="100" width="46" height="26" rx="4" fill="#F2F2F2"/>
<path d="M126.927 5.92529H119.051V20.0748H126.927V5.92529Z" fill="#FF5A00"/>
<path d="M119.575 13C119.575 10.1252 120.926 7.57379 123 5.92524C121.474 4.72524 119.549 4 117.449 4C112.474 4 108.449 8.02524 108.449 13C108.449 17.9748 112.474 22 117.449 22C119.549 22 121.474 21.2748 123 20.0748C120.923 18.4495 119.575 15.8748 119.575 13Z" fill="#EB001B"/>
<path d="M137.551 13C137.551 17.9748 133.526 22 128.551 22C126.451 22 124.526 21.2748 123 20.0748C125.1 18.4233 126.425 15.8748 126.425 13C126.425 10.1252 125.074 7.57379 123 5.92524C124.523 4.72524 126.449 4 128.549 4C133.526 4 137.551 8.05146 137.551 13Z" fill="#F79E1B"/>
<rect x="150" width="46" height="26" rx="4" fill="#F2F2F2"/>
<path fill-rule="evenodd" clip-rule="evenodd" d="M162.786 18.4972C164.032 18.4972 165.383 18.9236 166.88 20.2468C167.03 20.3792 167.229 20.2146 167.098 20.0499C165.628 18.1969 164.268 17.8442 162.912 17.5461C161.252 17.181 160.399 16.2492 159.804 15.2263C159.686 15.023 159.633 15.0589 159.622 15.3206C159.609 15.6402 159.632 16.0638 159.703 16.4805C159.636 16.4833 159.569 16.4828 159.501 16.4828C157.128 16.4828 155.203 14.5622 155.203 12.1931C155.203 9.82457 157.128 7.90441 159.501 7.90441C161.875 7.90441 163.799 9.82457 163.799 12.1931C163.799 12.3619 163.791 12.5289 163.771 12.6922C163.458 12.6356 162.84 12.6291 162.407 12.6664C162.244 12.6807 162.267 12.7565 162.39 12.7786C163.811 13.0348 164.786 13.9137 165.01 15.5082C165.014 15.545 165.063 15.5556 165.082 15.5239C165.686 14.518 166.004 13.3664 166.002 12.1931C166.002 8.61038 163.092 5.70508 159.501 5.70508C155.911 5.70508 153 8.60992 153 12.1931C153 15.7768 155.911 18.6821 159.501 18.6821C160.453 18.6821 161.399 18.4972 162.786 18.4972ZM163.27 16.1415C163.559 16.3853 163.647 16.6755 163.494 16.8802C163.409 16.9924 163.271 17.0545 163.105 17.0545C162.944 17.0545 162.787 16.9979 162.663 16.8944C162.4 16.6649 162.323 16.2933 162.495 16.0822C162.562 15.9994 162.671 15.9539 162.801 15.9539C162.96 15.9539 163.126 16.0206 163.27 16.1415ZM164.604 15.5216C164.647 15.8058 164.557 15.9235 164.466 15.9235C164.367 15.9235 164.244 15.8086 164.098 15.5809C163.953 15.3565 163.901 15.0989 163.972 14.9688C164.019 14.8827 164.118 14.845 164.243 14.8924C164.484 14.983 164.578 15.3519 164.604 15.5216ZM173.616 14.036L172.866 13.136C172.849 13.1148 172.837 13.089 172.834 13.0616C172.831 13.0343 172.835 13.0065 172.847 12.9816C172.859 12.9567 172.877 12.9356 172.9 12.921C172.924 12.9063 172.951 12.8985 172.978 12.8987H174.546C174.621 12.677 174.663 12.4401 174.663 12.1936C174.663 11.0668 173.822 10.095 172.669 10.095C171.515 10.095 170.675 11.0668 170.675 12.1936C170.675 13.3204 171.515 14.2789 172.669 14.2789C173.018 14.2789 173.338 14.1901 173.616 14.036ZM177.007 15.5561C177.089 15.6462 177.022 15.7906 176.899 15.7906H175.188C175.154 15.7907 175.12 15.7831 175.089 15.7686C175.058 15.7541 175.03 15.7328 175.008 15.7065L174.718 15.3583C174.108 15.754 173.396 15.9643 172.669 15.9636C170.586 15.9636 168.892 14.2724 168.892 12.1936C168.892 10.1148 170.586 8.42365 172.669 8.42365C174.752 8.42365 176.446 10.1148 176.446 12.1936C176.446 12.9433 176.225 13.6414 175.846 14.2292L177.007 15.5561ZM192.814 8.59796H191.417C191.368 8.59808 191.321 8.61765 191.286 8.65238C191.252 8.68712 191.232 8.73419 191.232 8.78331V15.6053C191.232 15.7078 191.315 15.7906 191.417 15.7906H192.814C192.917 15.7906 193 15.7078 193 15.6053V8.78285C193 8.73357 192.98 8.68631 192.946 8.65147C192.911 8.61662 192.863 8.59796 192.814 8.59796ZM190.464 8.59796H188.902C188.862 8.59781 188.824 8.61037 188.792 8.63379C188.76 8.65721 188.736 8.69026 188.724 8.72812L187.488 12.7598L186.129 8.72352C186.116 8.6867 186.093 8.65472 186.061 8.63211C186.029 8.60949 185.992 8.59739 185.953 8.5975H184.863C184.824 8.59736 184.786 8.60945 184.754 8.63206C184.722 8.65467 184.699 8.68666 184.686 8.72352L183.327 12.7598L182.091 8.72812C182.079 8.69018 182.056 8.65702 182.024 8.63351C181.992 8.61 181.953 8.59738 181.913 8.5975H180.351C180.322 8.59755 180.293 8.60454 180.266 8.61788C180.24 8.63123 180.218 8.65057 180.2 8.67431C180.183 8.69783 180.172 8.72515 180.167 8.75396C180.163 8.78277 180.165 8.81224 180.175 8.83988L182.47 15.6655C182.495 15.741 182.566 15.7915 182.646 15.7915H183.886C183.966 15.7915 184.037 15.741 184.062 15.666L185.408 11.678L186.753 15.6655C186.778 15.741 186.85 15.7915 186.929 15.7915H188.169C188.25 15.7915 188.32 15.741 188.346 15.6655L190.641 8.83988C190.65 8.81226 190.652 8.78283 190.648 8.75403C190.644 8.72523 190.632 8.6979 190.615 8.67431C190.598 8.65053 190.575 8.63118 190.549 8.61783C190.523 8.60448 190.493 8.59798 190.464 8.59796ZM179.583 8.78331V15.6053C179.583 15.7078 179.5 15.7906 179.397 15.7906H178.001C177.952 15.7906 177.905 15.7711 177.87 15.7364C177.835 15.7016 177.815 15.6545 177.815 15.6053V8.78285C177.815 8.68029 177.898 8.59704 178.001 8.59704H179.397C179.5 8.59704 179.583 8.68029 179.583 8.78331Z" fill="#FF8C00"/>
<defs>
<linearGradient id="paint0_linear_4714_1071" x1="41.3297" y1="10.6009" x2="30.6367" y2="10.6009" gradientUnits="userSpaceOnUse">
<stop stop-color="#1F5CD7"/>
<stop offset="1" stop-color="#02AEFF"/>
</linearGradient>
<clipPath id="clip0_4714_1071">
<rect width="37.0784" height="12" fill="white" transform="translate(54.4609 7)"/>
</clipPath>
</defs>
</svg>
